<svg width="24" height="24" fill="none" xmlns="http://www.w3.org/2000/svg"><path d="M23.11 1.172L18.233.047c-.25-.063-.5-.031-.75.094s-.422.296-.515.515l-2.25 5.25c-.094.25-.11.5-.047.75.062.219.187.407.375.563l2.812 2.343a16.99 16.99 0 01-3.422 4.876 16.178 16.178 0 01-4.874 3.421l-2.297-2.812a.856.856 0 00-.61-.375 1.077 1.077 0 00-.703.047l-5.25 2.25a1.01 1.01 0 00-.562.515c-.125.25-.157.5-.094.75l1.125 4.875c.031.282.156.5.375.657.219.156.453.234.703.234 3.938 0 7.594-.984 10.969-2.953a21.855 21.855 0 007.828-7.828C23.016 9.844 24 6.188 24 2.25c0-.25-.078-.484-.234-.703a.889.889 0 00-.657-.375z" fill="#000"/></svg>