<svg xmlns="http://www.w3.org/2000/svg" width="24" height="18" fill="none"  xmlns:v="https://vecta.io/nano"><path d="M23.53 5.953c.094-.094.188-.11.28-.047.125.063.188.156.188.28v9.563a2.17 2.17 0 0 1-.656 1.594A2.17 2.17 0 0 1 21.75 18H2.25a2.17 2.17 0 0 1-1.594-.656A2.17 2.17 0 0 1 0 15.75V6.188c0-.125.047-.203.14-.234.125-.062.234-.062.328 0l7.22 5.297.47.422 1.78 1.22c.75.406 1.438.61 2.063.61s1.313-.22 2.063-.656c.47-.25 1.063-.656 1.78-1.22l.47-.375 7.22-5.297zM12 12c.406 0 .906-.187 1.5-.562.344-.187.828-.53 1.453-1.03l.47-.328 7.922-5.86.234-.187c.28-.22.422-.516.422-.89v-.89a2.17 2.17 0 0 0-.656-1.594A2.17 2.17 0 0 0 21.75 0H2.25A2.17 2.17 0 0 0 .656.656 2.17 2.17 0 0 0 0 2.25v.89c0 .375.14.672.422.89l.328.234 7.828 5.812.47.328c.625.5 1.11.844 1.453 1.03.594.375 1.094.563 1.5.563z" fill="#D39A36"/></svg>