<svg width="24" height="24" viewBox="0 0 24 24" fill="none" xmlns="http://www.w3.org/2000/svg">
<path d="M23.4375 10.5H22.0312C21.6875 8.3125 20.7188 6.4375 19.125 4.875C17.5625 3.28125 15.6875 2.3125 13.5 1.96875V0.5625C13.5 0.40625 13.4375 0.28125 13.3125 0.1875C13.2188 0.0625 13.0938 0 12.9375 0H11.0625C10.9062 0 10.7656 0.0625 10.6406 0.1875C10.5469 0.28125 10.5 0.40625 10.5 0.5625V1.96875C8.3125 2.3125 6.42188 3.28125 4.82812 4.875C3.26562 6.4375 2.3125 8.3125 1.96875 10.5H0.5625C0.40625 10.5 0.265625 10.5625 0.140625 10.6875C0.046875 10.7812 0 10.9062 0 11.0625V12.9375C0 13.0938 0.046875 13.2344 0.140625 13.3594C0.265625 13.4531 0.40625 13.5 0.5625 13.5H1.96875C2.3125 15.6875 3.26562 17.5781 4.82812 19.1719C6.42188 20.7344 8.3125 21.6875 10.5 22.0312V23.4375C10.5 23.5938 10.5469 23.7188 10.6406 23.8125C10.7656 23.9375 10.9062 24 11.0625 24H12.9375C13.0938 24 13.2188 23.9375 13.3125 23.8125C13.4375 23.7188 13.5 23.5938 13.5 23.4375V22.0312C15.6875 21.6875 17.5625 20.7344 19.125 19.1719C20.7188 17.5781 21.6875 15.6875 22.0312 13.5H23.4375C23.5938 13.5 23.7188 13.4531 23.8125 13.3594C23.9375 13.2344 24 13.0938 24 12.9375V11.0625C24 10.9062 23.9375 10.7812 23.8125 10.6875C23.7188 10.5625 23.5938 10.5 23.4375 10.5ZM13.5 18.9844V17.0625C13.5 16.9062 13.4375 16.7812 13.3125 16.6875C13.2188 16.5625 13.0938 16.5 12.9375 16.5H11.0625C10.9062 16.5 10.7656 16.5625 10.6406 16.6875C10.5469 16.7812 10.5 16.9062 10.5 17.0625V18.9844C9.125 18.6719 7.9375 18.0312 6.9375 17.0625C5.96875 16.0625 5.32812 14.875 5.01562 13.5H6.9375C7.09375 13.5 7.21875 13.4531 7.3125 13.3594C7.4375 13.2344 7.5 13.0938 7.5 12.9375V11.0625C7.5 10.9062 7.4375 10.7812 7.3125 10.6875C7.21875 10.5625 7.09375 10.5 6.9375 10.5H5.01562C5.32812 9.125 5.96875 7.95312 6.9375 6.98438C7.9375 5.98438 9.125 5.32812 10.5 5.01562V6.9375C10.5 7.09375 10.5469 7.23438 10.6406 7.35938C10.7656 7.45312 10.9062 7.5 11.0625 7.5H12.9375C13.0938 7.5 13.2188 7.45312 13.3125 7.35938C13.4375 7.23438 13.5 7.09375 13.5 6.9375V5.01562C14.875 5.32812 16.0469 5.98438 17.0156 6.98438C18.0156 7.95312 18.6719 9.125 18.9844 10.5H17.0625C16.9062 10.5 16.7656 10.5625 16.6406 10.6875C16.5469 10.7812 16.5 10.9062 16.5 11.0625V12.9375C16.5 13.0938 16.5469 13.2344 16.6406 13.3594C16.7656 13.4531 16.9062 13.5 17.0625 13.5H18.9844C18.6719 14.875 18.0156 16.0625 17.0156 17.0625C16.0469 18.0312 14.875 18.6719 13.5 18.9844ZM13.5 12C13.5 12.4062 13.3438 12.7656 13.0312 13.0781C12.75 13.3594 12.4062 13.5 12 13.5C11.5938 13.5 11.2344 13.3594 10.9219 13.0781C10.6406 12.7656 10.5 12.4062 10.5 12C10.5 11.5938 10.6406 11.25 10.9219 10.9688C11.2344 10.6562 11.5938 10.5 12 10.5C12.4062 10.5 12.75 10.6562 13.0312 10.9688C13.3438 11.25 13.5 11.5938 13.5 12Z" fill="#D39A36"/>
</svg>