<svg width="24" height="24" fill="none" xmlns="http://www.w3.org/2000/svg"><path d="M23.438 10.5H22.03c-.343-2.188-1.312-4.063-2.906-5.625-1.563-1.594-3.438-2.563-5.625-2.906V.562a.445.445 0 00-.188-.375.445.445 0 00-.374-.187h-1.876a.583.583 0 00-.421.188.507.507 0 00-.141.374V1.97c-2.188.343-4.078 1.312-5.672 2.906-1.562 1.563-2.516 3.438-2.86 5.625H.564a.583.583 0 00-.422.188.507.507 0 00-.141.374v1.876c0 .156.047.296.14.421.126.094.266.141.422.141H1.97c.343 2.188 1.297 4.078 2.86 5.672 1.593 1.562 3.484 2.515 5.671 2.86v1.405c0 .157.047.282.14.375a.583.583 0 00.422.188h1.876a.445.445 0 00.374-.188.445.445 0 00.188-.375v-1.406c2.188-.343 4.063-1.297 5.625-2.86 1.594-1.593 2.563-3.483 2.906-5.671h1.407a.507.507 0 00.375-.14.583.583 0 00.187-.422v-1.876a.445.445 0 00-.188-.374.445.445 0 00-.375-.188zM13.5 18.984v-1.922a.445.445 0 00-.188-.375.445.445 0 00-.374-.187h-1.876a.583.583 0 00-.421.188.507.507 0 00-.141.375v1.921a7.37 7.37 0 01-3.563-1.922A7.37 7.37 0 015.016 13.5h1.921a.507.507 0 00.375-.14.583.583 0 00.188-.422v-1.876a.445.445 0 00-.188-.374.445.445 0 00-.375-.188H5.016c.312-1.375.953-2.547 1.921-3.516 1-1 2.188-1.656 3.563-1.968v1.921c0 .157.047.297.14.422.126.094.266.141.422.141h1.876a.507.507 0 00.374-.14.583.583 0 00.188-.423V5.016a6.928 6.928 0 013.516 1.968c1 .97 1.656 2.141 1.968 3.516h-1.922a.583.583 0 00-.421.188.507.507 0 00-.141.374v1.876c0 .156.047.296.14.421.126.094.266.141.422.141h1.922a7.199 7.199 0 01-1.968 3.563c-.97.968-2.141 1.609-3.516 1.921zm0-6.984c0 .406-.156.766-.469 1.078A1.402 1.402 0 0112 13.5c-.406 0-.766-.14-1.078-.422A1.564 1.564 0 0110.5 12c0-.406.14-.75.422-1.031.312-.313.672-.469 1.078-.469s.75.156 1.031.469c.313.281.469.625.469 1.031z" fill="#97962D"/></svg>