<svg width="24" height="24" viewBox="0 0 24 24" fill="none" xmlns="http://www.w3.org/2000/svg">
<path d="M23.1094 1.17188L18.2344 0.046875C17.9844 -0.015625 17.7344 0.015625 17.4844 0.140625C17.2344 0.265625 17.0625 0.4375 16.9688 0.65625L14.7188 5.90625C14.625 6.15625 14.6094 6.40625 14.6719 6.65625C14.7344 6.875 14.8594 7.0625 15.0469 7.21875L17.8594 9.5625C17.0156 11.375 15.875 13 14.4375 14.4375C13.0312 15.875 11.4062 17.0156 9.5625 17.8594L7.26562 15.0469C7.10938 14.8281 6.90625 14.7031 6.65625 14.6719C6.40625 14.6094 6.17188 14.625 5.95312 14.7188L0.703125 16.9688C0.453125 17.0625 0.265625 17.2344 0.140625 17.4844C0.015625 17.7344 -0.015625 17.9844 0.046875 18.2344L1.17188 23.1094C1.20312 23.3906 1.32812 23.6094 1.54688 23.7656C1.76562 23.9219 2 24 2.25 24C6.1875 24 9.84375 23.0156 13.2188 21.0469C16.5 19.1094 19.1094 16.5 21.0469 13.2188C23.0156 9.84375 24 6.1875 24 2.25C24 2 23.9219 1.76562 23.7656 1.54688C23.6094 1.32812 23.3906 1.20312 23.1094 1.17188Z" fill="black"/>
</svg>
