<svg xmlns="http://www.w3.org/2000/svg" fill="none" viewBox="0 0 178 72"><path fill="#000" fill-rule="evenodd" d="M127.34 1.067h15.655L178 70.933h-15.655l-3.501-6.987h-32.656a29.265 29.265 0 0 0 3.534-13.973h22.121L135.167 16.69l-14.472 28.883c.306 1.42.47 2.89.47 4.4 0 11.557-9.422 20.96-21.003 20.96H63.713A44.854 44.854 0 0 0 75.442 56.96h24.72c3.861 0 7.001-3.134 7.001-6.987s-3.14-6.987-7.001-6.987h-14.01a20.941 20.941 0 0 1-14.043-5.389C71.268 56.71 55.43 72 36.075 72 16.183 72 0 55.85 0 36S16.183 0 36.075 0c12.474 0 23.487 6.351 29.967 15.983 2.607-8.62 10.634-14.916 20.11-14.916h31.621l-7.002 13.973H86.152c-3.86 0-7.001 3.134-7.001 6.987s3.14 6.987 7.001 6.987h14.01c4.229 0 8.167 1.257 11.466 3.412L127.34 1.067zm-91.231 56.99c12.198 0 22.122-9.895 22.122-22.057 0-12.162-9.924-22.056-22.122-22.056-12.2 0-22.123 9.894-22.123 22.056s9.924 22.056 22.123 22.056z" clip-rule="evenodd"/></svg>