<svg display="none" xmlns="http://www.w3.org/2000/svg">
    <symbol id="input-phone" width="24" height="24" viewBox="0 0 24 24">
        <g><path d="M23.11 1.172L18.233.047c-.25-.063-.5-.031-.75.094s-.422.296-.515.515l-2.25 5.25c-.094.25-.11.5-.047.75.062.219.187.407.375.563l2.812 2.343a16.99 16.99 0 01-3.422 4.876 16.178 16.178 0 01-4.874 3.421l-2.297-2.812a.856.856 0 00-.61-.375 1.077 1.077 0 00-.703.047l-5.25 2.25a1.01 1.01 0 00-.562.515c-.125.25-.157.5-.094.75l1.125 4.875c.031.282.156.5.375.657.219.156.453.234.703.234 3.938 0 7.594-.984 10.969-2.953a21.855 21.855 0 007.828-7.828C23.016 9.844 24 6.188 24 2.25c0-.25-.078-.484-.234-.703a.889.889 0 00-.657-.375z"/></g>
    </symbol>
    <symbol id="input-mail" width="24" height="18" viewBox="0 0 24 18">
        <g><path d="M23.53 5.953c.094-.094.188-.11.28-.047.125.063.188.156.188.28v9.563a2.17 2.17 0 0 1-.656 1.594A2.17 2.17 0 0 1 21.75 18H2.25a2.17 2.17 0 0 1-1.594-.656A2.17 2.17 0 0 1 0 15.75V6.188c0-.125.047-.203.14-.234.125-.062.234-.062.328 0l7.22 5.297.47.422 1.78 1.22c.75.406 1.438.61 2.063.61s1.313-.22 2.063-.656c.47-.25 1.063-.656 1.78-1.22l.47-.375 7.22-5.297zM12 12c.406 0 .906-.187 1.5-.562.344-.187.828-.53 1.453-1.03l.47-.328 7.922-5.86.234-.187c.28-.22.422-.516.422-.89v-.89a2.17 2.17 0 0 0-.656-1.594A2.17 2.17 0 0 0 21.75 0H2.25A2.17 2.17 0 0 0 .656.656 2.17 2.17 0 0 0 0 2.25v.89c0 .375.14.672.422.89l.328.234 7.828 5.812.47.328c.625.5 1.11.844 1.453 1.03.594.375 1.094.563 1.5.563z"/></g>
    </symbol>
    <symbol id="input-amount" width="24" height="24" viewBox="0 0 24 24">
        <g><path d="M23.438 10.5H22.03c-.343-2.188-1.312-4.063-2.906-5.625-1.563-1.594-3.438-2.563-5.625-2.906V.562a.445.445 0 00-.188-.375.445.445 0 00-.374-.187h-1.876a.583.583 0 00-.421.188.507.507 0 00-.141.374V1.97c-2.188.343-4.078 1.312-5.672 2.906-1.562 1.563-2.516 3.438-2.86 5.625H.564a.583.583 0 00-.422.188.507.507 0 00-.141.374v1.876c0 .156.047.296.14.421.126.094.266.141.422.141H1.97c.343 2.188 1.297 4.078 2.86 5.672 1.593 1.562 3.484 2.515 5.671 2.86v1.405c0 .157.047.282.14.375a.583.583 0 00.422.188h1.876a.445.445 0 00.374-.188.445.445 0 00.188-.375v-1.406c2.188-.343 4.063-1.297 5.625-2.86 1.594-1.593 2.563-3.483 2.906-5.671h1.407a.507.507 0 00.375-.14.583.583 0 00.187-.422v-1.876a.445.445 0 00-.188-.374.445.445 0 00-.375-.188zM13.5 18.984v-1.922a.445.445 0 00-.188-.375.445.445 0 00-.374-.187h-1.876a.583.583 0 00-.421.188.507.507 0 00-.141.375v1.921a7.37 7.37 0 01-3.563-1.922A7.37 7.37 0 015.016 13.5h1.921a.507.507 0 00.375-.14.583.583 0 00.188-.422v-1.876a.445.445 0 00-.188-.374.445.445 0 00-.375-.188H5.016c.312-1.375.953-2.547 1.921-3.516 1-1 2.188-1.656 3.563-1.968v1.921c0 .157.047.297.14.422.126.094.266.141.422.141h1.876a.507.507 0 00.374-.14.583.583 0 00.188-.423V5.016a6.928 6.928 0 013.516 1.968c1 .97 1.656 2.141 1.968 3.516h-1.922a.583.583 0 00-.421.188.507.507 0 00-.141.374v1.876c0 .156.047.296.14.421.126.094.266.141.422.141h1.922a7.199 7.199 0 01-1.968 3.563c-.97.968-2.141 1.609-3.516 1.921zm0-6.984c0 .406-.156.766-.469 1.078A1.402 1.402 0 0112 13.5c-.406 0-.766-.14-1.078-.422A1.564 1.564 0 0110.5 12c0-.406.14-.75.422-1.031.312-.313.672-.469 1.078-.469s.75.156 1.031.469c.313.281.469.625.469 1.031z"/></g>
    </symbol>
</svg>